<?xml version="1.0" encoding="utf-8"?>
<!-- Generator: Adobe Illustrator 21.1.0, SVG Export Plug-In . SVG Version: 6.00 Build 0)  -->
<svg version="1.1" id="Layer_1" xmlns="http://www.w3.org/2000/svg" xmlns:xlink="http://www.w3.org/1999/xlink" x="0px" y="0px"
	 viewBox="0 0 352.1 350" style="enable-background:new 0 0 352.1 350;" xml:space="preserve">
<style type="text/css">
	.st0{fill:#FBAD18;}
</style>
<g>
	<g>
		<path class="st0" d="M110.8,15.6c-91,37.1-137,122.1-95.3,224.2c31.7,77.7,103.3,142.1,223.3,93.2c0.4-0.2,0.8-0.4,1.3-0.5
			c0.4-0.2,0.9-0.3,1.3-0.5c120-49,126.1-145.1,94.4-222.8C294.1,7,201.7-21.6,110.8,15.6z"/>
		<g>
			<path d="M112.4,156.5c-4.7-2.2-5.7-4.8-5.7-7.7c0-3.4,2.5-6.3,9-6.3c6.6,0,16,3.3,21.5,18.2l0.8,0.1l10-12.4
				c-7.2-7.6-18-11.4-26.8-11.4c-21.8,0-30.7,14.1-30.7,25.3c0,8.2,3.6,15.6,13.4,20.3l21.2,9.9c3.3,1.4,4.8,3.8,4.8,6.8
				c0,3.4-2.2,7.7-9.9,7.7c-10.5,0-20.1-10-23.5-22l-0.8-0.1l-13.8,14.6c9.9,9.7,22.6,13.5,33.1,13.5c20.5,0,33.8-14.1,33.8-27.9
				C148.8,166.9,117.1,158.7,112.4,156.5z"/>
			<path d="M185.7,201v-51.6h8.8v-4.9h-3c-10.8,0-14.1-11.6-14.1-17.3c0-4.9,3.4-12.6,12-12.6c7.6,0,15,6,16.1,20l0.9,0.2l9.6-13.6
				c-5-8.6-13-14.5-22.5-14.5c-21.4,0-33.8,14-33.8,37.1v0.8H153v4.9h6.7V201c0,5.6-2.9,8.6-6.7,10.3v0.7h42.1v-0.7
				C190.1,210.2,185.7,207.7,185.7,201z"/>
			<path d="M277.3,192.9c-1.3,4.6-4.5,5.7-6.7,5.7c-2.8,0-5.3-2.1-5.3-7v-22.5c0-18.7-11-32-31.6-32c-17.9,0-29.1,10.5-31.5,27.6
				l1,0.3c3.6-10.6,12.1-14,20.8-14c11.6,0,17.3,7.7,17.3,16.5v2.4l-14.5,2c-16.7,3.5-27.3,12.2-27.3,24.9c0,0.1,0,0.2,0,0.3
				c0,17.8,26.3,23.3,36.9,3.5c-4.8,0-13-4-13-11.2c0-13.4,17.9-15.3,17.9-15.3v20.2c0,3.8,0.9,7.5,2.9,10.7
				c2.4,3.9,6.9,8.2,14.9,8.2c10.9,0,17.2-6.7,19.6-20L277.3,192.9z"/>
		</g>
		<g>
			<g>
				<g>
					<g>
						<path d="M104.5,289.4c-0.3,0.4-0.7,0.7-1.2,0.8c-0.5,0.1-1,0-1.4-0.3c-0.4-0.3-0.7-0.7-0.8-1.2c-0.1-0.5,0-1,0.3-1.4
							c0.3-0.4,0.7-0.7,1.2-0.8c0.5-0.1,1,0,1.4,0.3c0.4,0.3,0.7,0.7,0.8,1.2C104.9,288.5,104.8,289,104.5,289.4z"/>
						<path d="M91.6,280.1c-0.3,0.4-0.8,0.6-1.3,0.7c-0.5,0-1-0.1-1.4-0.4c-0.4-0.3-0.6-0.8-0.7-1.3c0-0.5,0.1-1,0.4-1.4
							c0.3-0.4,0.8-0.6,1.3-0.7c0.5,0,1,0.1,1.4,0.4c0.4,0.3,0.6,0.8,0.7,1.3C92,279.2,91.9,279.7,91.6,280.1z"/>
						<path d="M79.8,269.4c-0.4,0.4-0.8,0.5-1.4,0.5c-0.5,0-1-0.2-1.3-0.6c-0.4-0.4-0.5-0.8-0.5-1.4c0-0.5,0.2-1,0.6-1.3
							c0.4-0.4,0.8-0.5,1.3-0.5c0.5,0,1,0.2,1.3,0.6c0.4,0.4,0.5,0.8,0.5,1.3C80.4,268.6,80.2,269,79.8,269.4z"/>
						<path d="M61.6,241.6c0.9-0.5,1.5-1.2,1.8-2c0.2-0.8,0.1-1.6-0.3-2.4c-0.2-0.3-0.4-0.6-0.7-0.8s-0.5-0.4-0.8-0.5
							c-0.3-0.1-0.6-0.2-0.9-0.1c-0.3,0-0.7,0.1-1,0.3c-0.4,0.2-0.6,0.4-0.8,0.7c-0.2,0.3-0.3,0.6-0.3,0.9c0,0.3-0.1,0.6,0,1
							c0,0.3,0.1,0.6,0.1,0.9c0.1,0.8,0.2,1.5,0.3,2.2c0.1,0.7,0.1,1.4,0,2c-0.1,0.6-0.3,1.2-0.7,1.7c-0.3,0.5-0.9,1-1.6,1.4
							c-0.6,0.3-1.2,0.5-1.8,0.5c-0.6,0-1.2-0.1-1.8-0.3c-0.6-0.2-1.1-0.5-1.6-1c-0.5-0.4-0.9-1-1.2-1.6c-0.4-0.6-0.6-1.3-0.7-2
							c-0.1-0.7,0-1.3,0.1-2c0.2-0.6,0.5-1.2,0.9-1.7c0.4-0.5,1-1,1.6-1.4l1.3,2.4c-0.7,0.4-1.2,0.9-1.4,1.5
							c-0.2,0.6-0.2,1.3,0.2,1.9c0.3,0.6,0.8,1,1.3,1.3c0.5,0.3,1.1,0.2,1.7-0.1c0.3-0.2,0.5-0.4,0.7-0.6c0.2-0.2,0.3-0.5,0.3-0.8
							c0.1-0.3,0.1-0.6,0.1-0.9c0-0.3,0-0.6-0.1-1c-0.1-0.7-0.2-1.4-0.3-2.1c-0.1-0.7-0.1-1.4,0-2.1c0.1-0.7,0.3-1.3,0.6-1.8
							c0.3-0.6,0.8-1,1.5-1.4c0.7-0.4,1.5-0.6,2.2-0.7c0.7,0,1.4,0,2,0.3c0.6,0.2,1.2,0.6,1.7,1.1c0.5,0.5,1,1.1,1.3,1.7
							c0.4,0.7,0.6,1.3,0.7,2.1c0.1,0.7,0.1,1.4-0.1,2.1c-0.2,0.7-0.5,1.3-1,2c-0.5,0.6-1.1,1.1-1.9,1.6L61.6,241.6z"/>
						<path d="M42.3,227l-1.9-5.6c-0.3-0.8-0.4-1.6-0.3-2.4c0.1-0.8,0.3-1.5,0.6-2.1c0.3-0.7,0.8-1.2,1.4-1.7
							c0.6-0.5,1.2-0.9,1.9-1.1c0.7-0.3,1.5-0.4,2.2-0.3c0.7,0,1.4,0.2,2.1,0.5c0.7,0.3,1.3,0.7,1.8,1.3c0.5,0.6,0.9,1.3,1.2,2.1
							l1,3l4.7-1.6l0.9,2.6L42.3,227z M49,218.4c-0.2-0.4-0.4-0.8-0.7-1.1c-0.3-0.3-0.6-0.5-1-0.7c-0.4-0.2-0.8-0.2-1.2-0.2
							c-0.4,0-0.9,0.1-1.3,0.2c-0.4,0.1-0.8,0.4-1.1,0.6c-0.3,0.3-0.6,0.6-0.8,0.9c-0.2,0.3-0.3,0.7-0.4,1.2c0,0.4,0,0.9,0.2,1.3
							l1,3l6.3-2.2L49,218.4z"/>
						<path d="M37.5,200.1l4.6-0.7l-1.1-6.7l2.4-0.4l1.1,6.7l4.5-0.7l-1.1-6.7l2.4-0.4l1.5,9.4l-16.2,2.6l-1.5-9.4l2.4-0.4
							L37.5,200.1z"/>
						<path d="M44.3,164.2c0.8,0.2,1.5,0.5,2.2,1c0.7,0.5,1.3,1,1.8,1.7c0.5,0.7,0.9,1.5,1.2,2.3c0.3,0.9,0.4,1.8,0.4,2.8
							c0,1.3-0.3,2.5-0.8,3.6c-0.5,1.1-1.1,1.9-1.9,2.7c-0.8,0.7-1.7,1.3-2.8,1.6c-1,0.4-2.2,0.5-3.3,0.5c-1.1,0-2.2-0.2-3.2-0.6
							c-1-0.4-1.9-1-2.7-1.7c-0.8-0.7-1.4-1.6-1.9-2.7c-0.5-1-0.7-2.2-0.6-3.5c0-1.2,0.2-2.3,0.6-3.2c0.4-0.9,0.8-1.7,1.4-2.4
							c0.6-0.7,1.3-1.2,2.1-1.6s1.6-0.6,2.5-0.7l-0.1,2.8c-0.6,0.1-1.1,0.3-1.6,0.5c-0.5,0.3-0.9,0.6-1.3,1
							c-0.4,0.4-0.6,0.9-0.9,1.4c-0.2,0.6-0.3,1.2-0.3,1.8c0,0.9,0.1,1.8,0.5,2.5c0.3,0.8,0.8,1.4,1.3,1.9c0.6,0.5,1.2,0.9,1.9,1.2
							c0.7,0.3,1.5,0.4,2.3,0.5c0.8,0,1.6-0.1,2.4-0.4c0.8-0.3,1.4-0.6,2-1.2c0.6-0.5,1-1.1,1.4-1.9s0.5-1.6,0.6-2.7
							c0-0.5-0.1-0.9-0.2-1.4c-0.2-0.5-0.4-0.9-0.7-1.3c-0.3-0.4-0.6-0.8-1-1.1c-0.4-0.3-0.8-0.5-1.3-0.7L44.3,164.2z"/>
						<path d="M35,150.8l0.5-2.7l16.1,3l-0.5,2.7L35,150.8z"/>
						<path d="M57.2,131.3l-2.2,0l-2,5.8l1.8,1.3l-0.9,2.7l-13.7-10.6l0.6-1.8l17.4-0.1L57.2,131.3z M44.7,131.1l6.3,4.5l1.4-4.3
							L44.7,131.1z"/>
						<path d="M63.7,111.6l2.1,1.1l-3.6,6.9L47.7,112l1.3-2.4l12.4,6.5L63.7,111.6z"/>
						<path d="M60.5,95.1l-2.4,3.3l-2-1.4l6.3-8.8l2,1.4l-2.4,3.3l11.4,8.1l-1.6,2.2L60.5,95.1z"/>
						<path d="M85.4,86.9L83.3,89L81,82l-11.3-2.6l2.2-2.2l8.1,1.9l-2.5-7.5l2.1-2.1L85.4,86.9z"/>
						<path d="M106.2,53.2l2.5,4.6l5.9-3.3l1.2,2.1l-5.9,3.3l3.1,5.6l-2.4,1.3l-8-14.4l8.3-4.6l1.2,2.1L106.2,53.2z"/>
						<path d="M136.4,55.4c-1.2,0.4-2.4,0.6-3.6,0.4c-1.2-0.1-2.2-0.4-3.1-1c-0.9-0.5-1.8-1.2-2.5-2.1c-0.7-0.9-1.2-1.8-1.6-2.9
							s-0.5-2.1-0.5-3.2c0-1.1,0.3-2.2,0.7-3.1c0.4-1,1.1-1.9,1.9-2.7s1.9-1.4,3.1-1.8c1.2-0.4,2.4-0.6,3.6-0.4
							c1.2,0.1,2.2,0.4,3.1,1c0.9,0.5,1.8,1.2,2.5,2.1c0.7,0.9,1.2,1.8,1.6,2.9c0.3,1.1,0.5,2.1,0.5,3.2c0,1.1-0.3,2.2-0.7,3.1
							c-0.4,1-1.1,1.9-1.9,2.7C138.7,54.4,137.6,55,136.4,55.4z M135.6,53.1c0.8-0.3,1.5-0.7,2.1-1.2c0.6-0.5,1-1.2,1.3-1.9
							c0.3-0.7,0.4-1.4,0.4-2.2c0-0.8-0.1-1.6-0.4-2.3c-0.3-0.8-0.6-1.4-1.1-2.1c-0.5-0.6-1-1.1-1.7-1.5c-0.6-0.4-1.4-0.6-2.1-0.8
							c-0.8-0.1-1.6,0-2.4,0.3c-0.8,0.3-1.5,0.7-2.1,1.2c-0.6,0.5-1,1.2-1.3,1.9c-0.3,0.7-0.4,1.4-0.4,2.2c0,0.8,0.1,1.6,0.4,2.3
							c0.3,0.8,0.6,1.4,1.1,2.1c0.5,0.6,1,1.1,1.7,1.5c0.6,0.4,1.4,0.6,2.1,0.8C134,53.5,134.8,53.4,135.6,53.1z"/>
						<path d="M162.1,49.8c-1.3,0.1-2.5,0-3.6-0.3c-1.1-0.4-2.1-0.9-2.9-1.6c-0.8-0.7-1.5-1.6-2-2.6c-0.5-1-0.8-2-0.9-3.1
							s0-2.2,0.2-3.3c0.3-1.1,0.7-2.1,1.4-2.9c0.6-0.9,1.5-1.6,2.4-2.2c1-0.6,2.1-1,3.5-1.1c1.3-0.1,2.5,0,3.6,0.3
							c1.1,0.4,2.1,0.9,2.9,1.6c0.8,0.7,1.5,1.6,2,2.6c0.5,1,0.8,2,0.9,3.1s0,2.2-0.2,3.3c-0.3,1.1-0.7,2.1-1.4,2.9
							c-0.6,0.9-1.5,1.6-2.4,2.2C164.6,49.3,163.4,49.7,162.1,49.8z M161.9,47.4c0.9-0.1,1.6-0.4,2.3-0.8c0.7-0.4,1.2-0.9,1.6-1.6
							c0.4-0.6,0.7-1.3,0.9-2.1c0.2-0.8,0.2-1.5,0.1-2.3c-0.1-0.8-0.3-1.5-0.6-2.3c-0.3-0.7-0.8-1.3-1.3-1.8
							c-0.6-0.5-1.2-0.9-1.9-1.2c-0.7-0.3-1.5-0.3-2.4-0.3c-0.9,0.1-1.6,0.4-2.3,0.8c-0.7,0.4-1.2,0.9-1.6,1.6
							c-0.4,0.6-0.7,1.3-0.9,2.1c-0.2,0.8-0.2,1.5-0.1,2.3c0.1,0.8,0.3,1.5,0.6,2.3c0.3,0.7,0.8,1.3,1.3,1.8
							c0.6,0.5,1.2,0.9,1.9,1.2C160.2,47.4,161,47.5,161.9,47.4z"/>
						<path d="M187.7,32.7c1.4,0.1,2.5,0.5,3.5,1c1,0.6,1.8,1.3,2.5,2.1c0.7,0.8,1.1,1.7,1.4,2.8c0.3,1,0.4,2,0.3,3.1
							c-0.1,1-0.4,2-0.8,3c-0.5,0.9-1.1,1.8-1.9,2.5c-0.8,0.7-1.7,1.2-2.8,1.6c-1.1,0.4-2.3,0.5-3.7,0.4l-5.3-0.5l1.4-16.4
							L187.7,32.7z M184.9,34.9l-1,11.5l2.6,0.2c0.9,0.1,1.7,0,2.5-0.3c0.7-0.3,1.4-0.6,1.9-1.1c0.5-0.5,1-1.1,1.3-1.7
							c0.3-0.7,0.5-1.4,0.6-2.1c0.1-0.7,0-1.5-0.2-2.2c-0.2-0.7-0.5-1.4-0.9-1.9c-0.4-0.6-1-1.1-1.7-1.5c-0.7-0.4-1.5-0.6-2.4-0.7
							L184.9,34.9z"/>
						<path d="M227,59.2l0.1-2.2l-5.7-2.3l-1.4,1.7l-2.6-1.1l11.4-13.1l1.8,0.7l-0.9,17.3L227,59.2z M228,46.7l-4.9,6l4.2,1.7
							L228,46.7z"/>
						<path d="M242.9,61.3c-0.6,0.9-0.7,1.8-0.5,2.6c0.2,0.8,0.7,1.5,1.5,1.9c0.3,0.2,0.6,0.3,1,0.4c0.3,0.1,0.7,0.1,1,0
							c0.3-0.1,0.6-0.2,0.9-0.3c0.3-0.2,0.5-0.4,0.7-0.7c0.2-0.4,0.3-0.7,0.3-1c0-0.3,0-0.6-0.2-0.9s-0.3-0.6-0.5-0.9
							c-0.2-0.3-0.4-0.5-0.6-0.8c-0.5-0.6-1-1.2-1.4-1.8c-0.4-0.6-0.7-1.2-1-1.7c-0.2-0.6-0.3-1.2-0.3-1.8c0-0.6,0.3-1.3,0.7-2
							c0.4-0.6,0.8-1,1.3-1.4c0.5-0.3,1.1-0.5,1.7-0.6c0.6-0.1,1.2-0.1,1.9,0.1c0.6,0.1,1.2,0.4,1.8,0.8c0.6,0.4,1.1,0.9,1.6,1.4
							c0.4,0.5,0.7,1.1,0.9,1.8c0.2,0.6,0.2,1.3,0.1,2c-0.1,0.7-0.4,1.3-0.8,2l-2.3-1.4c0.4-0.7,0.6-1.4,0.5-2
							c-0.1-0.7-0.5-1.2-1.1-1.6c-0.6-0.4-1.2-0.5-1.7-0.5c-0.6,0-1.1,0.4-1.4,1c-0.2,0.3-0.3,0.6-0.3,0.9c0,0.3,0,0.6,0.1,0.9
							c0.1,0.3,0.2,0.6,0.4,0.8c0.2,0.3,0.4,0.5,0.6,0.8c0.4,0.5,0.8,1.1,1.3,1.7c0.4,0.6,0.8,1.2,1,1.8c0.3,0.6,0.4,1.3,0.4,1.9
							c0,0.6-0.2,1.3-0.6,2c-0.4,0.7-1,1.3-1.5,1.7c-0.6,0.4-1.2,0.6-1.9,0.7c-0.7,0.1-1.4,0.1-2-0.1c-0.7-0.2-1.4-0.5-2-0.9
							c-0.6-0.4-1.2-0.9-1.6-1.5c-0.4-0.6-0.8-1.2-0.9-1.9c-0.2-0.7-0.2-1.4-0.1-2.2c0.1-0.8,0.4-1.5,0.9-2.3L242.9,61.3z"/>
						<path d="M261.1,74.1c-0.7,0.8-1,1.6-1,2.5c0.1,0.8,0.5,1.5,1.2,2.2c0.3,0.2,0.6,0.4,0.9,0.6c0.3,0.1,0.6,0.2,1,0.2
							c0.3,0,0.6-0.1,0.9-0.2c0.3-0.1,0.6-0.3,0.8-0.6c0.3-0.3,0.4-0.6,0.5-1c0.1-0.3,0.1-0.6,0-1c-0.1-0.3-0.2-0.6-0.3-0.9
							c-0.1-0.3-0.3-0.6-0.4-0.8c-0.4-0.7-0.7-1.4-1.1-2c-0.3-0.6-0.5-1.3-0.6-1.9s-0.1-1.2,0-1.8c0.1-0.6,0.5-1.2,1-1.8
							c0.4-0.5,1-0.9,1.5-1.1c0.6-0.2,1.2-0.4,1.8-0.3c0.6,0,1.2,0.1,1.8,0.4c0.6,0.2,1.2,0.6,1.7,1.1c0.6,0.5,1,1,1.3,1.6
							c0.3,0.6,0.5,1.2,0.6,1.9c0.1,0.7,0,1.3-0.2,1.9c-0.2,0.6-0.6,1.3-1.1,1.8l-2-1.8c0.5-0.6,0.8-1.2,0.8-1.9
							c0-0.7-0.3-1.2-0.9-1.8c-0.5-0.4-1.1-0.7-1.6-0.8c-0.6-0.1-1.1,0.2-1.6,0.7c-0.2,0.2-0.4,0.5-0.4,0.8c-0.1,0.3-0.1,0.6,0,0.9
							c0,0.3,0.1,0.6,0.2,0.9c0.1,0.3,0.3,0.6,0.4,0.9c0.3,0.6,0.7,1.2,1,1.9c0.3,0.6,0.6,1.3,0.7,1.9c0.2,0.7,0.2,1.3,0.1,1.9
							c-0.1,0.6-0.4,1.3-0.9,1.8c-0.6,0.6-1.2,1.1-1.8,1.4c-0.6,0.3-1.3,0.4-2,0.4c-0.7,0-1.3-0.2-2-0.4c-0.7-0.3-1.3-0.7-1.8-1.2
							c-0.6-0.5-1-1.1-1.4-1.7c-0.3-0.6-0.5-1.3-0.6-2c-0.1-0.7,0-1.4,0.3-2.2c0.2-0.7,0.7-1.5,1.3-2.2L261.1,74.1z"/>
						<path d="M275.9,97.7c-0.8-1-1.3-2.1-1.6-3.2c-0.3-1.1-0.3-2.2-0.1-3.3c0.2-1.1,0.6-2.1,1.1-3c0.6-0.9,1.3-1.8,2.2-2.4
							c0.9-0.7,1.8-1.2,2.9-1.5c1.1-0.3,2.1-0.5,3.2-0.4c1.1,0.1,2.1,0.4,3.2,0.9c1,0.5,1.9,1.3,2.8,2.4c0.8,1,1.3,2.1,1.6,3.2
							c0.3,1.1,0.3,2.2,0.1,3.3c-0.2,1.1-0.6,2.1-1.1,3c-0.6,0.9-1.3,1.8-2.2,2.4c-0.9,0.7-1.8,1.2-2.9,1.5
							c-1.1,0.3-2.1,0.5-3.2,0.4c-1.1-0.1-2.1-0.4-3.2-0.9C277.6,99.6,276.7,98.8,275.9,97.7z M277.8,96.3c0.5,0.7,1.2,1.2,1.9,1.5
							c0.7,0.3,1.4,0.5,2.2,0.6c0.8,0,1.5-0.1,2.3-0.3c0.7-0.3,1.4-0.6,2.1-1.1c0.6-0.5,1.2-1.1,1.6-1.7c0.4-0.7,0.7-1.4,0.9-2.1
							c0.2-0.7,0.2-1.5,0-2.3s-0.5-1.5-1-2.2c-0.5-0.7-1.2-1.2-1.9-1.5c-0.7-0.3-1.4-0.5-2.2-0.6c-0.8,0-1.5,0.1-2.3,0.3
							c-0.7,0.3-1.4,0.6-2.1,1.1c-0.6,0.5-1.2,1.1-1.6,1.7s-0.7,1.4-0.9,2.1c-0.2,0.7-0.2,1.5,0,2.3
							C276.9,94.8,277.3,95.6,277.8,96.3z"/>
						<path d="M298.5,124.7c-0.8,0.2-1.6,0.2-2.4,0.1c-0.8-0.1-1.6-0.3-2.4-0.7c-0.8-0.4-1.5-0.9-2.1-1.6c-0.6-0.7-1.2-1.4-1.6-2.3
							c-0.6-1.2-0.9-2.4-1-3.6c0-1.2,0.1-2.2,0.5-3.3c0.4-1,1-1.9,1.7-2.7c0.8-0.8,1.7-1.5,2.7-2c1-0.5,2-0.8,3.1-0.9
							c1.1-0.1,2.2,0,3.2,0.3c1,0.3,2,0.8,2.9,1.5c0.9,0.7,1.6,1.6,2.2,2.8c0.5,1.1,0.9,2.1,1,3.1c0.1,1,0.1,1.9-0.2,2.8
							c-0.2,0.9-0.6,1.6-1.1,2.3c-0.5,0.7-1.2,1.3-1.9,1.8l-1.3-2.5c0.5-0.3,0.9-0.7,1.2-1.2c0.3-0.5,0.5-1,0.7-1.5
							c0.1-0.5,0.2-1.1,0.1-1.7c-0.1-0.6-0.2-1.2-0.5-1.8c-0.4-0.8-0.9-1.5-1.6-2c-0.6-0.5-1.3-0.9-2.1-1.1
							c-0.7-0.2-1.5-0.3-2.3-0.2c-0.8,0.1-1.5,0.3-2.2,0.7c-0.8,0.4-1.4,0.8-2,1.4c-0.6,0.6-1,1.2-1.3,1.9c-0.3,0.7-0.4,1.5-0.4,2.3
							c0,0.8,0.3,1.7,0.7,2.6c0.2,0.4,0.5,0.8,0.8,1.2c0.4,0.4,0.8,0.7,1.2,0.9c0.4,0.2,0.9,0.4,1.4,0.5c0.5,0.1,1,0.1,1.5,0
							L298.5,124.7z"/>
						<path d="M312.9,132.4l0.8,2.7l-15.7,4.8l-0.8-2.7L312.9,132.4z"/>
						<path d="M302.1,159.8l2-1l-0.9-6.1l-2.2-0.4l-0.4-2.8l17.1,3.1l0.3,1.9l-15.4,8.1L302.1,159.8z M313.4,154.3l-7.7-1.1l0.7,4.5
							L313.4,154.3z"/>
						<path d="M317,173.9l-0.1-4.1l2.4,0l0.2,10.8l-2.4,0l-0.1-4.1l-14,0.2l0-2.7L317,173.9z"/>
						<path d="M318.4,193.2L318,196l-16.3-2.2l0.4-2.8L318.4,193.2z"/>
						<path d="M297.2,212.4c0.4-1.3,1-2.3,1.7-3.2c0.8-0.9,1.6-1.5,2.6-2s2-0.7,3.1-0.8c1.1-0.1,2.2,0.1,3.3,0.4
							c1.1,0.3,2,0.8,2.9,1.5c0.9,0.7,1.6,1.5,2.1,2.4c0.6,0.9,0.9,2,1,3.1c0.1,1.1,0,2.4-0.4,3.6c-0.4,1.3-1,2.3-1.7,3.2
							c-0.8,0.9-1.6,1.5-2.6,2s-2,0.7-3.1,0.8c-1.1,0.1-2.2-0.1-3.3-0.4c-1.1-0.3-2-0.8-2.9-1.5c-0.9-0.7-1.6-1.5-2.1-2.4
							c-0.6-0.9-0.9-2-1-3.1C296.7,214.9,296.8,213.7,297.2,212.4z M299.5,213.1c-0.3,0.8-0.3,1.6-0.2,2.4c0.1,0.8,0.4,1.5,0.8,2.1
							c0.4,0.6,0.9,1.2,1.6,1.7c0.6,0.5,1.3,0.8,2.1,1c0.8,0.2,1.5,0.3,2.3,0.3c0.8,0,1.5-0.2,2.2-0.5c0.7-0.3,1.3-0.7,1.8-1.3
							c0.5-0.6,0.9-1.3,1.2-2.1c0.3-0.8,0.3-1.6,0.2-2.4c-0.1-0.8-0.4-1.5-0.8-2.1c-0.4-0.6-0.9-1.2-1.6-1.7s-1.3-0.8-2.1-1
							c-0.8-0.2-1.5-0.3-2.3-0.3c-0.8,0-1.5,0.2-2.2,0.5c-0.7,0.3-1.3,0.7-1.8,1.3C300.1,211.6,299.7,212.3,299.5,213.1z"/>
						<path d="M290.5,240.8l10.3,5.5l-1.3,2.4l-14.5-7.8l1.4-2.6l13.4-0.2l-10.3-5.5l1.3-2.4l14.5,7.8l-1.4,2.6L290.5,240.8z"/>
						<path d="M275.2,266.6c0.4,0.4,0.6,0.8,0.6,1.3c0,0.5-0.2,1-0.5,1.3c-0.4,0.4-0.8,0.6-1.3,0.6c-0.5,0-1-0.2-1.4-0.5
							c-0.4-0.4-0.6-0.8-0.6-1.3c0-0.5,0.2-1,0.5-1.4c0.4-0.4,0.8-0.6,1.3-0.6C274.4,266.1,274.8,266.3,275.2,266.6z"/>
						<path d="M263.7,277.7c0.3,0.4,0.5,0.9,0.4,1.4c0,0.5-0.3,0.9-0.7,1.3c-0.4,0.3-0.9,0.5-1.4,0.4c-0.5,0-0.9-0.3-1.3-0.7
							c-0.3-0.4-0.5-0.9-0.4-1.4c0-0.5,0.3-0.9,0.7-1.3c0.4-0.3,0.9-0.5,1.4-0.4C263,277.1,263.4,277.3,263.7,277.7z"/>
						<path d="M251,287.3c0.3,0.4,0.4,0.9,0.3,1.4c-0.1,0.5-0.4,0.9-0.8,1.2c-0.4,0.3-0.9,0.4-1.4,0.3c-0.5-0.1-0.9-0.4-1.2-0.8
							c-0.3-0.4-0.4-0.9-0.3-1.4c0.1-0.5,0.4-0.9,0.8-1.2c0.4-0.3,0.9-0.4,1.4-0.3C250.3,286.6,250.7,286.9,251,287.3z"/>
					</g>
				</g>
				<g>
					<g>
						<path d="M158.8,272.9v2.4H152v4.6h6.8v2.4H152v4.5h6.8v2.4h-9.5v-16.4H158.8z"/>
					</g>
					<g>
						<path d="M170.5,284h2.7c0,2.1,1.2,3.4,3.3,3.4c1.8,0,2.8-0.8,2.8-2.3c0-1.2-0.6-1.9-2.4-2.6l-2.7-1.1
							c-2.1-0.8-3.1-2.3-3.1-4.4c0-2.7,2.2-4.5,5.3-4.5c3.3,0,5.4,2,5.4,5.1h-2.7c0-1.8-1-2.8-2.8-2.8c-1.5,0-2.4,0.8-2.4,2
							c0,1.1,0.8,1.9,2.7,2.7l2.4,1c2.1,0.8,3.1,2.3,3.1,4.5c0,2.8-2.2,4.7-5.4,4.7C172.7,289.7,170.5,287.7,170.5,284z"/>
					</g>
					<g>
						<path d="M192.3,275.5v-2.5h12.2v2.5h-4.8v13.9H197v-13.9H192.3z"/>
					</g>
				</g>
				<g>
					<g>
						<path d="M138.1,306.5v-2.3c3,0,3.6-0.8,3.6-2.7h2.4v16h-2.7v-11H138.1z"/>
					</g>
					<g>
						<path d="M167.2,310.7l-5,6.8H159l3.7-4.7h0c-3.6,0-5.8-2.5-5.8-5.7c0-3.2,2.2-5.7,5.8-5.7c3.6,0,5.8,2.5,5.8,5.7
							C168.4,308.4,168,309.7,167.2,310.7z M162.7,310.5c2.1,0,3.2-1.5,3.2-3.5c0-2-1.1-3.5-3.2-3.5c-2.1,0-3.2,1.5-3.2,3.5
							C159.5,309,160.6,310.5,162.7,310.5z"/>
					</g>
					<g>
						<path d="M180.2,313.2h2.7c0.1,1.4,1.3,2.2,2.8,2.2c2,0,3.1-1.3,3.1-3.3s-1.1-3.3-2.8-3.3c-1.5,0-2.5,0.5-3.1,1.9h-2.5v-9.1h10
							v2.4h-7.6v4.1c0.9-1,2.2-1.4,3.5-1.4c3.1,0,5,2.2,5,5.3c0,3.2-2.2,5.8-5.7,5.8C182.7,317.8,180.4,315.9,180.2,313.2z"/>
					</g>
					<g>
						<path d="M207,310.3l2.3-1.3c1.3-0.7,2-1.7,2-3c0-1.4-1-2.4-2.3-2.4c-1.8,0-2.8,1.2-2.8,3.4h-2.8c0-3.5,2.2-5.7,5.6-5.7
							c3.2,0,5.2,1.8,5.2,4.6c0,1.9-1.1,3.8-3.1,4.9l-2.3,1.3c-1.8,1-2.3,1.6-2.5,3h7.9v2.4h-11.1C203.1,314,204.3,311.8,207,310.3z
							"/>
					</g>
				</g>
			</g>
		</g>
	</g>
	<g>
		<path d="M300.4,316.9h-2.5v-1.5h6.6v1.5H302v8.7h-1.6V316.9z M306.1,315.5h2.7l2.5,7.4l2.5-7.4h2.7v10.2h-1.6v-8.3l-2.8,8.3h-1.4
			l-2.8-8.3v8.3h-1.6V315.5z"/>
	</g>
</g>
</svg>
